<svg width="31" height="32" viewBox="0 0 31 32" fill="none" xmlns="http://www.w3.org/2000/svg">
<path d="M30.082 5.532L15.512 30.75c-.29.5-.99.5-1.28 0L-.058 5.532c-.29-.5.07-1.125.64-1.125h28.856c.57 0 .93.625.64 1.125z" fill="url(#paint0_linear_0_1)"/>
<path d="M22.622 1.782L15.512 13.5c-.29.5-.99.5-1.28 0L7.122 1.782c-.29-.5.07-1.125.64-1.125h14.22c.57 0 .93.625.64 1.125z" fill="url(#paint1_linear_0_1)"/>
<defs>
<linearGradient id="paint0_linear_0_1" x1="25.222" y1="3.407" x2="7.122" y2="28.407" gradientUnits="userSpaceOnUse">
<stop stop-color="#41D1FF"/>
<stop offset="1" stop-color="#BD34FE"/>
</linearGradient>
<linearGradient id="paint1_linear_0_1" x1="17.762" y1="-0.343" x2="7.122" y2="12.407" gradientUnits="userSpaceOnUse">
<stop stop-color="#FFEA83"/>
<stop offset="0.083" stop-color="#FFDD35"/>
<stop offset="1" stop-color="#FFA800"/>
</linearGradient>
</defs>
</svg>
